REM DIRINDEX 1\2,1\4,1\5,1\6,1\7,1\3\8,1\3\9,1\3\10
REM DIRNAME cjc113,folder01,folder02,folder03,folder04,folder05,folder06,folder07,folder08,folder09
TITLE ""
FILE "DB4500_5th_4B_39.mp3" MP3
  TRACK 01 AUDIO
    TITLE "8:cjc113_3231"
    INDEX 01 00:00:00
  TRACK 02 AUDIO
    TITLE "0:"
    INDEX 01 00:01:09
  TRACK 03 AUDIO
    TITLE "9:cjc113_3232"
    INDEX 01 00:01:32
  TRACK 04 AUDIO
    TITLE "0:"
    INDEX 01 00:02:34
  TRACK 05 AUDIO
    TITLE "10:cjc113_3233"
    INDEX 01 00:02:55
  TRACK 06 AUDIO
    TITLE "0:"
    INDEX 01 00:05:34
  TRACK 07 AUDIO
    TITLE "8:cjc113_3234"
    INDEX 01 00:06:06
  TRACK 08 AUDIO
    TITLE "0:"
    INDEX 01 00:09:06
  TRACK 09 AUDIO
    TITLE "9:cjc113_3235"
    INDEX 01 00:09:32
  TRACK 10 AUDIO
    TITLE "0:"
    INDEX 01 00:10:47
  TRACK 11 AUDIO
    TITLE "10:cjc113_3236"
    INDEX 01 00:10:72
  TRACK 12 AUDIO
    TITLE "0:"
    INDEX 01 00:16:02
  TRACK 13 AUDIO
    TITLE "8:cjc113_3237"
    INDEX 01 00:16:49
  TRACK 14 AUDIO
    TITLE "0:"
    INDEX 01 00:17:61
  TRACK 15 AUDIO
    TITLE "9:cjc113_3238"
    INDEX 01 00:18:07
  TRACK 16 AUDIO
    TITLE "0:"
    INDEX 01 00:19:16
  TRACK 17 AUDIO
    TITLE "10:cjc113_3239"
    INDEX 01 00:19:38
  TRACK 18 AUDIO
    TITLE "0:"
    INDEX 01 00:25:11
  TRACK 19 AUDIO
    TITLE "8:cjc113_3240"
    INDEX 01 00:25:60
  TRACK 20 AUDIO
    TITLE "0:"
    INDEX 01 00:26:67
  TRACK 21 AUDIO
    TITLE "9:cjc113_3241"
    INDEX 01 00:27:10
  TRACK 22 AUDIO
    TITLE "0:"
    INDEX 01 00:28:35
  TRACK 23 AUDIO
    TITLE "10:cjc113_3242"
    INDEX 01 00:28:57
  TRACK 24 AUDIO
    TITLE "0:"
    INDEX 01 00:32:00
  TRACK 25 AUDIO
    TITLE "8:cjc113_3243"
    INDEX 01 00:32:47
  TRACK 26 AUDIO
    TITLE "0:"
    INDEX 01 00:33:56
  TRACK 27 AUDIO
    TITLE "9:cjc113_3244"
    INDEX 01 00:34:02
  TRACK 28 AUDIO
    TITLE "0:"
    INDEX 01 00:35:33
  TRACK 29 AUDIO
    TITLE "10:cjc113_3245"
    INDEX 01 00:35:55
  TRACK 30 AUDIO
    TITLE "0:"
    INDEX 01 00:38:43
  TRACK 31 AUDIO
    TITLE "8:cjc113_3246"
    INDEX 01 00:39:17
  TRACK 32 AUDIO
    TITLE "0:"
    INDEX 01 00:40:17
  TRACK 33 AUDIO
    TITLE "9:cjc113_3247"
    INDEX 01 00:40:40
  TRACK 34 AUDIO
    TITLE "0:"
    INDEX 01 00:41:51
  TRACK 35 AUDIO
    TITLE "10:cjc113_3248"
    INDEX 01 00:42:00
  TRACK 36 AUDIO
    TITLE "0:"
    INDEX 01 00:45:35
  TRACK 37 AUDIO
    TITLE "8:cjc113_3249"
    INDEX 01 00:46:07
  TRACK 38 AUDIO
    TITLE "0:"
    INDEX 01 00:47:27
  TRACK 39 AUDIO
    TITLE "9:cjc113_3250"
    INDEX 01 00:47:48
  TRACK 40 AUDIO
    TITLE "0:"
    INDEX 01 00:48:73
  TRACK 41 AUDIO
    TITLE "10:cjc113_3251"
    INDEX 01 00:49:20
  TRACK 42 AUDIO
    TITLE "0:"
    INDEX 01 00:52:51
  TRACK 43 AUDIO
    TITLE "8:cjc113_3252"
    INDEX 01 00:53:23
  TRACK 44 AUDIO
    TITLE "0:"
    INDEX 01 00:54:36
  TRACK 45 AUDIO
    TITLE "9:cjc113_3253"
    INDEX 01 00:54:58
  TRACK 46 AUDIO
    TITLE "0:"
    INDEX 01 00:56:14
  TRACK 47 AUDIO
    TITLE "10:cjc113_3254"
    INDEX 01 00:56:37
  TRACK 48 AUDIO
    TITLE "0:"
    INDEX 01 01:00:68
  TRACK 49 AUDIO
    TITLE "10:cjc113_3255"
    INDEX 01 01:01:36
  TRACK 50 AUDIO
    TITLE "0:"
    INDEX 01 01:04:50
  TRACK 51 AUDIO
    TITLE "8:cjc113_3256"
    INDEX 01 01:05:22
  TRACK 52 AUDIO
    TITLE "0:"
    INDEX 01 01:06:42
  TRACK 53 AUDIO
    TITLE "9:cjc113_3257"
    INDEX 01 01:06:65
  TRACK 54 AUDIO
    TITLE "0:"
    INDEX 01 01:08:11
  TRACK 55 AUDIO
    TITLE "10:cjc113_3258"
    INDEX 01 01:08:35
  TRACK 56 AUDIO
    TITLE "0:"
    INDEX 01 01:11:47
  TRACK 57 AUDIO
    TITLE "8:cjc113_3259"
    INDEX 01 01:12:17
  TRACK 58 AUDIO
    TITLE "0:"
    INDEX 01 01:13:24
  TRACK 59 AUDIO
    TITLE "9:cjc113_3260"
    INDEX 01 01:13:47
  TRACK 60 AUDIO
    TITLE "0:"
    INDEX 01 01:14:59
  TRACK 61 AUDIO
    TITLE "10:cjc113_3261"
    INDEX 01 01:15:03
  TRACK 62 AUDIO
    TITLE "0:"
    INDEX 01 01:18:21
  TRACK 63 AUDIO
    TITLE "8:cjc113_3262"
    INDEX 01 01:18:72
  TRACK 64 AUDIO
    TITLE "0:"
    INDEX 01 01:20:04
  TRACK 65 AUDIO
    TITLE "9:cjc113_3263"
    INDEX 01 01:20:30
  TRACK 66 AUDIO
    TITLE "0:"
    INDEX 01 01:22:33
  TRACK 67 AUDIO
    TITLE "10:cjc113_3264"
    INDEX 01 01:22:54
  TRACK 68 AUDIO
    TITLE "0:"
    INDEX 01 01:26:17
  TRACK 69 AUDIO
    TITLE "8:cjc113_3265"
    INDEX 01 01:26:62
  TRACK 70 AUDIO
    TITLE "0:"
    INDEX 01 01:27:67
  TRACK 71 AUDIO
    TITLE "9:cjc113_3266"
    INDEX 01 01:28:14
  TRACK 72 AUDIO
    TITLE "0:"
    INDEX 01 01:29:56
  TRACK 73 AUDIO
    TITLE "10:cjc113_3267"
    INDEX 01 01:30:03
  TRACK 74 AUDIO
    TITLE "0:"
    INDEX 01 01:32:55
  TRACK 75 AUDIO
    TITLE "8:cjc113_3268"
    INDEX 01 01:33:27
  TRACK 76 AUDIO
    TITLE "0:"
    INDEX 01 01:34:40
  TRACK 77 AUDIO
    TITLE "9:cjc113_3269"
    INDEX 01 01:34:61
  TRACK 78 AUDIO
    TITLE "0:"
    INDEX 01 01:36:01
  TRACK 79 AUDIO
    TITLE "10:cjc113_3270"
    INDEX 01 01:36:25
  TRACK 80 AUDIO
    TITLE "0:"
    INDEX 01 01:40:11
